<svg xmlns="http://www.w3.org/2000/svg" viewBox="0 0 842.01 595.95"><defs><style>.cls-1{fill:#231f20;}.cls-2,.cls-3{fill:none;stroke:#fff;stroke-width:0.5px;}.cls-2,.cls-3,.cls-4{stroke-miterlimit:10;}.cls-2,.cls-5,.cls-6{fill-rule:evenodd;}.cls-4{fill:#bcbec0;stroke:#231f20;stroke-width:0.75px;}.cls-5{fill:#e6e7e8;}.cls-6,.cls-7{fill:#fff;}</style></defs><title>handsOfCreation</title><g id="Layer_1" data-name="Layer 1"><rect class="cls-1" width="842.01" height="595.95"/></g><g id="Layer_2" data-name="Layer 2"><polygon class="cls-2" points="812.6 490.97 25.08 490.97 277.81 333.89 559.87 333.89 812.6 490.97"/><line class="cls-3" x1="54.32" y1="490.97" x2="288.28" y2="333.89"/><line class="cls-3" x1="83.56" y1="490.97" x2="298.75" y2="333.89"/><line class="cls-3" x1="112.79" y1="490.97" x2="309.23" y2="333.89"/><line class="cls-3" x1="142.03" y1="490.97" x2="319.7" y2="333.89"/><line class="cls-3" x1="171.27" y1="490.97" x2="330.17" y2="333.89"/><line class="cls-3" x1="200.51" y1="490.97" x2="340.64" y2="333.89"/><line class="cls-3" x1="229.74" y1="490.97" x2="351.11" y2="333.89"/><line class="cls-3" x1="258.98" y1="490.97" x2="361.59" y2="333.89"/><line class="cls-3" x1="288.22" y1="490.97" x2="372.06" y2="333.89"/><line class="cls-3" x1="317.45" y1="490.97" x2="382.53" y2="333.89"/><line class="cls-3" x1="346.69" y1="490.97" x2="393" y2="333.89"/><line class="cls-3" x1="375.93" y1="490.97" x2="403.47" y2="333.89"/><line class="cls-3" x1="405.17" y1="490.97" x2="413.94" y2="333.89"/><line class="cls-3" x1="434.41" y1="490.97" x2="424.42" y2="333.89"/><line class="cls-3" x1="463.64" y1="490.97" x2="434.89" y2="333.89"/><line class="cls-3" x1="492.88" y1="490.97" x2="445.36" y2="333.89"/><line class="cls-3" x1="522.12" y1="490.97" x2="455.83" y2="333.89"/><line class="cls-3" x1="551.36" y1="490.97" x2="466.3" y2="333.89"/><line class="cls-3" x1="580.59" y1="490.97" x2="476.77" y2="333.89"/><line class="cls-3" x1="609.83" y1="490.97" x2="487.25" y2="333.89"/><line class="cls-3" x1="639.07" y1="490.97" x2="497.72" y2="333.89"/><line class="cls-3" x1="668.3" y1="490.97" x2="508.19" y2="333.89"/><line class="cls-3" x1="697.54" y1="490.97" x2="518.66" y2="333.89"/><line class="cls-3" x1="726.78" y1="490.97" x2="529.13" y2="333.89"/><line class="cls-3" x1="756.02" y1="490.97" x2="539.6" y2="333.89"/><line class="cls-3" x1="785.26" y1="490.97" x2="550.08" y2="333.89"/><line class="cls-3" x1="269.05" y1="339.34" x2="568.63" y2="339.34"/><line class="cls-3" x1="259.12" y1="345.51" x2="578.56" y2="345.51"/><line class="cls-3" x1="247.78" y1="352.55" x2="589.9" y2="352.55"/><line class="cls-3" x1="234.71" y1="360.68" x2="602.97" y2="360.68"/><line class="cls-3" x1="219.48" y1="370.15" x2="618.2" y2="370.15"/><line class="cls-3" x1="201.5" y1="381.32" x2="636.18" y2="381.32"/><line class="cls-3" x1="179.95" y1="394.71" x2="657.73" y2="394.71"/><line class="cls-3" x1="153.67" y1="411.05" x2="684.02" y2="411.05"/><line class="cls-3" x1="120.88" y1="431.43" x2="716.8" y2="431.43"/><line class="cls-3" x1="78.84" y1="457.56" x2="758.84" y2="457.56"/><polygon class="cls-2" points="812.6 38.59 25.08 38.59 277.81 195.67 559.87 195.67 812.6 38.59"/><line class="cls-3" x1="54.32" y1="38.59" x2="288.28" y2="195.67"/><line class="cls-3" x1="83.56" y1="38.59" x2="298.75" y2="195.67"/><line class="cls-3" x1="112.79" y1="38.59" x2="309.23" y2="195.67"/><line class="cls-3" x1="142.03" y1="38.59" x2="319.7" y2="195.67"/><line class="cls-3" x1="171.27" y1="38.59" x2="330.17" y2="195.67"/><line class="cls-3" x1="200.51" y1="38.59" x2="340.64" y2="195.67"/><line class="cls-3" x1="229.74" y1="38.59" x2="351.11" y2="195.67"/><line class="cls-3" x1="258.98" y1="38.59" x2="361.59" y2="195.67"/><line class="cls-3" x1="288.22" y1="38.59" x2="372.06" y2="195.67"/><line class="cls-3" x1="317.45" y1="38.59" x2="382.53" y2="195.67"/><line class="cls-3" x1="346.69" y1="38.59" x2="393" y2="195.67"/><line class="cls-3" x1="375.93" y1="38.59" x2="403.47" y2="195.67"/><line class="cls-3" x1="405.17" y1="38.59" x2="413.94" y2="195.67"/><line class="cls-3" x1="434.41" y1="38.59" x2="424.42" y2="195.67"/><line class="cls-3" x1="463.64" y1="38.59" x2="434.89" y2="195.67"/><line class="cls-3" x1="492.88" y1="38.59" x2="445.36" y2="195.67"/><line class="cls-3" x1="522.12" y1="38.59" x2="455.83" y2="195.67"/><line class="cls-3" x1="551.36" y1="38.59" x2="466.3" y2="195.67"/><line class="cls-3" x1="580.59" y1="38.59" x2="476.77" y2="195.67"/><line class="cls-3" x1="609.83" y1="38.59" x2="487.25" y2="195.67"/><line class="cls-3" x1="639.07" y1="38.59" x2="497.72" y2="195.67"/><line class="cls-3" x1="668.3" y1="38.59" x2="508.19" y2="195.67"/><line class="cls-3" x1="697.54" y1="38.59" x2="518.66" y2="195.67"/><line class="cls-3" x1="726.78" y1="38.59" x2="529.13" y2="195.67"/><line class="cls-3" x1="756.02" y1="38.59" x2="539.6" y2="195.67"/><line class="cls-3" x1="785.26" y1="38.59" x2="550.08" y2="195.67"/><line class="cls-3" x1="269.05" y1="190.23" x2="568.63" y2="190.23"/><line class="cls-3" x1="259.12" y1="184.06" x2="578.56" y2="184.06"/><line class="cls-3" x1="247.78" y1="177.01" x2="589.9" y2="177.01"/><line class="cls-3" x1="234.71" y1="168.89" x2="602.97" y2="168.89"/><line class="cls-3" x1="219.48" y1="159.42" x2="618.2" y2="159.42"/><line class="cls-3" x1="201.5" y1="148.24" x2="636.18" y2="148.24"/><line class="cls-3" x1="179.95" y1="134.85" x2="657.73" y2="134.85"/><line class="cls-3" x1="153.67" y1="118.51" x2="684.02" y2="118.51"/><line class="cls-3" x1="120.88" y1="98.13" x2="716.8" y2="98.13"/><line class="cls-3" x1="78.84" y1="72.01" x2="758.84" y2="72.01"/><path class="cls-2" d="M721.31,387.15c-189.55-100.7-411.52-100.7-601.07,0V142.67c189.59,100.69,411.47,100.69,601.07,0Z" transform="translate(0 0.67)"/><path class="cls-2" d="M141.25,376.15q0-111.24,0-222.48" transform="translate(0 0.67)"/><path class="cls-2" d="M162.56,366V163.83" transform="translate(0 0.67)"/><path class="cls-2" d="M184.15,356.69q0-91.78,0-183.56" transform="translate(0 0.67)"/><path class="cls-2" d="M206,348.23V181.59" transform="translate(0 0.67)"/><path class="cls-2" d="M228.06,340.62V189.2" transform="translate(0 0.67)"/><path class="cls-2" d="M250.34,333.87V196" transform="translate(0 0.67)"/><path class="cls-2" d="M272.8,328V201.87" transform="translate(0 0.67)"/><path class="cls-2" d="M295.42,322.89v-116" transform="translate(0 0.67)"/><path class="cls-2" d="M318.17,318.67q0-53.76,0-107.53" transform="translate(0 0.67)"/><path class="cls-2" d="M341,315.31q0-50.4,0-100.8" transform="translate(0 0.67)"/><path class="cls-2" d="M364,312.79V217" transform="translate(0 0.67)"/><path class="cls-2" d="M387,311.12V218.7" transform="translate(0 0.67)"/><path class="cls-2" d="M410,310.3V219.52" transform="translate(0 0.67)"/><path class="cls-2" d="M433.05,310.33V219.49" transform="translate(0 0.67)"/><path class="cls-2" d="M456.09,311.2V218.62" transform="translate(0 0.67)"/><path class="cls-2" d="M479.09,312.93v-96" transform="translate(0 0.67)"/><path class="cls-2" d="M502,315.5V214.32" transform="translate(0 0.67)"/><path class="cls-2" d="M524.87,318.92v-108" transform="translate(0 0.67)"/><path class="cls-2" d="M547.61,323.19V206.63" transform="translate(0 0.67)"/><path class="cls-2" d="M570.22,328.31V201.51" transform="translate(0 0.67)"/><path class="cls-2" d="M592.67,334.28V195.54" transform="translate(0 0.67)"/><path class="cls-2" d="M614.93,341.09V188.73" transform="translate(0 0.67)"/><path class="cls-2" d="M637,348.75V181.06" transform="translate(0 0.67)"/><path class="cls-2" d="M658.82,357.27V172.55" transform="translate(0 0.67)"/><path class="cls-2" d="M680.39,366.63V163.19" transform="translate(0 0.67)"/><path class="cls-2" d="M701.68,376.83V153" transform="translate(0 0.67)"/><path class="cls-2" d="M120.25,165a756.06,756.06,0,0,0,601.07,0" transform="translate(0 0.67)"/><path class="cls-2" d="M120.25,187.25c193.5,65.24,407.57,65.24,601.07,0" transform="translate(0 0.67)"/><path class="cls-2" d="M120.25,209.54c196,47.08,405.07,47.08,601.07,0" transform="translate(0 0.67)"/><path class="cls-2" d="M120.25,231.83a2124.39,2124.39,0,0,0,601.07,0" transform="translate(0 0.67)"/><path class="cls-2" d="M120.25,254.12c200.12,9.38,400.94,9.39,601.07,0" transform="translate(0 0.67)"/><path class="cls-2" d="M120.25,276.42c200.1-10,401-10,601.07,0" transform="translate(0 0.67)"/><path class="cls-2" d="M120.25,298.71a2080.82,2080.82,0,0,1,601.07,0" transform="translate(0 0.67)"/><path class="cls-2" d="M120.25,321c195.94-47.66,405.13-47.66,601.07,0" transform="translate(0 0.67)"/><path class="cls-2" d="M120.25,343.29c193.39-65.82,407.68-65.85,601.07,0" transform="translate(0 0.67)"/><path class="cls-2" d="M120.25,365.58a751.24,751.24,0,0,1,601.07,0" transform="translate(0 0.67)"/></g><g id="Layer_3" data-name="Layer 3"><path class="cls-4" d="M368.39,326.43a40.4,40.4,0,0,0,8.24-7.93c15.59-20,9.66-50.65-13.23-68.52s-54.09-16.18-69.68,3.79c-.31.4-.6.81-.9,1.22a53.15,53.15,0,0,0-29.89-32.21c-27.7-11.5-59.88,2.61-71.88,31.51a58.27,58.27,0,0,0-4,30,52.59,52.59,0,0,0-5.4,7.46c-12.4,20.73-8.58,45.83,8.53,56.07,8.4,5,18.44,5.53,28,2.3C223.5,361.18,233,369,244.63,370.35c8.82,1,17.34-1.94,24.32-7.62,8.75,13.88,23.47,21.7,37.92,18.53,8.75-1.92,15.89-7.54,20.65-15.28,17.14,1.8,33.08-5.57,39.23-19.68A31.42,31.42,0,0,0,368.39,326.43Z" transform="translate(0 0.67)"/><path class="cls-4" d="M382.36,307.07c-10.66,11.42-34.46,6.52-53.17-10.94S304,255.26,314.62,243.84s34.46-6.52,53.17,10.94S393,295.65,382.36,307.07Z" transform="translate(0 0.67)"/><ellipse class="cls-4" cx="250.66" cy="237.28" rx="45.52" ry="70.43" transform="translate(-55.32 397.66) rotate(-70.99)"/><path class="cls-4" d="M209.09,217.85c-6.51,10.94-26.52,11-44.69.22s-27.61-28.45-21.1-39.39,26.52-11,44.69-.23S215.6,206.91,209.09,217.85Z" transform="translate(0 0.67)"/><ellipse class="cls-4" cx="139.36" cy="177.52" rx="24.36" ry="40.81" transform="translate(-78.02 238.85) rotate(-67.46)"/><path class="cls-4" d="M209.11,347.21c-7.9,14.27-23.35,20.84-34.51,14.66s-13.81-22.75-5.92-37S192,304,203.2,310.19,217,332.94,209.11,347.21Z" transform="translate(0 0.67)"/><ellipse class="cls-4" cx="242.99" cy="365.61" rx="24.6" ry="32.29" transform="translate(-21.16 15.65) rotate(-3.38)"/><ellipse class="cls-4" cx="176.75" cy="356.1" rx="28.27" ry="19.69" transform="translate(-220.4 339.07) rotate(-61.05)"/><ellipse class="cls-4" cx="243.56" cy="397.95" rx="21.82" ry="29.95" transform="translate(-23.04 15.72) rotate(-3.38)"/><ellipse class="cls-4" cx="308.46" cy="374.05" rx="24.31" ry="27.99" transform="translate(-171.06 303.15) rotate(-42)"/><ellipse class="cls-4" cx="164.97" cy="377.02" rx="27.99" ry="18.66" transform="translate(-245.53 348.52) rotate(-62.3)"/><ellipse class="cls-4" cx="320.22" cy="390.84" rx="19.57" ry="27.99" transform="translate(-179.28 315.39) rotate(-42.01)"/><path class="cls-4" d="M263.18,425.86c1.13,15.42-6.29,28.53-16.57,29.28S227.08,444,226,428.59s6.29-28.53,16.57-29.28S262,410.44,263.18,425.86Z" transform="translate(0 0.67)"/><path class="cls-4" d="M367.89,350.67c9.48,9.2,11.09,22.91,3.6,30.63s-21.24,6.52-30.72-2.68-11.09-22.9-3.61-30.62S358.41,341.48,367.89,350.67Z" transform="translate(0 0.67)"/><ellipse class="cls-4" cx="369.3" cy="376.12" rx="15.41" ry="21.57" transform="translate(-138.83 516.99) rotate(-60.95)"/><ellipse class="cls-4" cx="336.17" cy="407.65" rx="18.26" ry="27.99" transform="translate(-181.44 302.17) rotate(-38.9)"/><path class="cls-4" d="M396.92,370.52c9.29,9,11.52,21.77,5,28.48s-19.33,4.87-28.62-4.14-11.52-21.76-5-28.48S387.64,361.52,396.92,370.52Z" transform="translate(0 0.67)"/><path class="cls-4" d="M477.88,326.43a40.32,40.32,0,0,1-8.24-7.93C454,298.53,460,267.85,482.87,250s54.09-16.18,69.68,3.79c.31.4.6.81.9,1.22a53.15,53.15,0,0,1,29.89-32.21c27.7-11.5,59.88,2.61,71.88,31.51a58.24,58.24,0,0,1,4,30,52.52,52.52,0,0,1,5.4,7.46c12.4,20.73,8.58,45.83-8.53,56.07-8.4,5-18.44,5.53-28,2.3-5.38,11.08-14.92,18.93-26.51,20.24-8.82,1-17.34-1.94-24.32-7.62-8.75,13.88-23.47,21.7-37.92,18.53-8.75-1.92-15.89-7.54-20.65-15.28-17.13,1.8-33.08-5.57-39.23-19.68A31.42,31.42,0,0,1,477.88,326.43Z" transform="translate(0 0.67)"/><path class="cls-4" d="M463.91,307.07c10.66,11.42,34.46,6.52,53.16-10.94s25.22-40.87,14.57-52.29-34.46-6.52-53.17,10.94S453.25,295.65,463.91,307.07Z" transform="translate(0 0.67)"/><ellipse class="cls-4" cx="595.6" cy="237.28" rx="70.43" ry="45.52" transform="translate(-44.81 207.61) rotate(-19.01)"/><path class="cls-4" d="M637.17,217.85c6.51,10.94,26.52,11,44.69.22s27.61-28.45,21.1-39.39-26.52-11-44.69-.23S630.67,206.91,637.17,217.85Z" transform="translate(0 0.67)"/><ellipse class="cls-4" cx="706.9" cy="177.52" rx="40.81" ry="24.37" transform="translate(-14.04 285.25) rotate(-22.54)"/><path class="cls-4" d="M637.15,347.21c7.9,14.27,23.35,20.84,34.5,14.66s13.82-22.75,5.92-37S654.23,304,643.07,310.19,629.26,332.94,637.15,347.21Z" transform="translate(0 0.67)"/><ellipse class="cls-4" cx="603.27" cy="365.61" rx="32.29" ry="24.6" transform="translate(202.69 946.92) rotate(-86.62)"/><ellipse class="cls-4" cx="669.51" cy="356.1" rx="19.69" ry="28.27" transform="translate(-88.71 369.24) rotate(-28.95)"/><ellipse class="cls-4" cx="602.71" cy="397.95" rx="29.95" ry="21.82" transform="translate(169.92 976.82) rotate(-86.62)"/><ellipse class="cls-4" cx="537.81" cy="374.05" rx="27.99" ry="24.31" transform="translate(-100.03 524.09) rotate(-48)"/><path class="cls-4" d="M664.77,385.69c7.19,13.69,20.41,20.9,29.54,16.11S705,382,697.82,368.34s-20.4-20.9-29.53-16.11S657.59,372,664.77,385.69Z" transform="translate(0 0.67)"/><ellipse class="cls-4" cx="526.04" cy="390.84" rx="27.99" ry="19.57" transform="translate(-116.41 520.84) rotate(-47.99)"/><path class="cls-4" d="M583.09,425.86c-1.13,15.42,6.29,28.53,16.57,29.28s19.53-11.14,20.66-26.55S614,400.06,603.74,399.3,584.22,410.44,583.09,425.86Z" transform="translate(0 0.67)"/><path class="cls-4" d="M478.37,350.67c-9.48,9.2-11.09,22.91-3.6,30.63s21.24,6.52,30.72-2.68,11.09-22.9,3.61-30.62S487.85,341.48,478.37,350.67Z" transform="translate(0 0.67)"/><ellipse class="cls-4" cx="476.96" cy="376.12" rx="21.58" ry="15.41" transform="translate(-122.63 279.62) rotate(-29.05)"/><ellipse class="cls-4" cx="510.09" cy="407.65" rx="27.99" ry="18.26" transform="translate(-127.48 549.31) rotate(-51.1)"/><path class="cls-4" d="M449.34,370.52c-9.29,9-11.52,21.77-5,28.48s19.33,4.87,28.62-4.14,11.52-21.76,5-28.48S458.63,361.52,449.34,370.52Z" transform="translate(0 0.67)"/><path class="cls-5" d="M607.32,265c-174.92,0-188,13.07-188,188,0-174.92-13.07-188-188-188,174.92,0,188-13.07,188-188C419.33,251.93,432.4,265,607.32,265Z" transform="translate(0 0.67)"/><path class="cls-6" d="M499.32,265c-74.43,0-80,5.56-80,80,0-74.43-5.56-80-80-80,74.43,0,80-5.56,80-80C419.33,259.44,424.89,265,499.32,265Z" transform="translate(0 0.67)"/></g><g id="Layer_4" data-name="Layer 4"><circle class="cls-7" cx="428.21" cy="294.39" r="2.32"/><circle class="cls-7" cx="428.21" cy="287.73" r="2.32"/><circle class="cls-7" cx="346.8" cy="267.45" r="2.32"/><circle class="cls-7" cx="346.8" cy="249.2" r="2.32"/><circle class="cls-7" cx="340.14" cy="267.45" r="2.32"/><circle class="cls-7" cx="333.47" cy="267.45" r="2.32"/><circle class="cls-7" cx="481.9" cy="239.83" r="2.32"/><circle class="cls-7" cx="463.93" cy="239.83" r="2.32"/><circle class="cls-7" cx="533.18" cy="375.42" r="2.32"/><circle class="cls-7" cx="526.51" cy="375.42" r="2.32"/><circle class="cls-7" cx="519.85" cy="375.42" r="2.32"/><circle class="cls-7" cx="193.54" cy="268.03" r="1.3"/><circle class="cls-7" cx="193.54" cy="262.82" r="1.3"/><circle class="cls-7" cx="193.54" cy="257.6" r="1.3"/><circle class="cls-7" cx="193.54" cy="252.39" r="1.3"/><circle class="cls-7" cx="319.28" cy="375.51" r="1.3"/><circle class="cls-7" cx="314.06" cy="375.51" r="1.3"/><circle class="cls-7" cx="308.85" cy="375.51" r="1.3"/><circle class="cls-7" cx="303.63" cy="375.51" r="1.3"/><circle class="cls-7" cx="643.89" cy="331.77" r="1.3"/><circle class="cls-7" cx="643.89" cy="336.98" r="1.3"/><circle class="cls-7" cx="643.89" cy="342.2" r="1.3"/><circle class="cls-7" cx="643.89" cy="347.41" r="1.3"/><circle class="cls-7" cx="625.93" cy="331.77" r="1.3"/><circle class="cls-7" cx="625.93" cy="336.98" r="1.3"/><circle class="cls-7" cx="625.93" cy="342.2" r="1.3"/><circle class="cls-7" cx="625.93" cy="347.41" r="1.3"/><circle class="cls-7" cx="549.16" cy="321.34" r="1.3"/><circle class="cls-7" cx="543.94" cy="321.34" r="1.3"/><circle class="cls-7" cx="536.41" cy="321.34" r="1.3"/><circle class="cls-7" cx="531.19" cy="321.34" r="1.3"/><circle class="cls-7" cx="199.48" cy="177.64" r="1.3" transform="translate(19.72 375.9) rotate(-89.39)"/><circle class="cls-7" cx="194.27" cy="177.59" r="1.3" transform="translate(14.62 370.63) rotate(-89.39)"/><circle class="cls-7" cx="186.74" cy="177.51" r="1.3" transform="translate(7.21 362.98) rotate(-89.38)"/><circle class="cls-7" cx="181.52" cy="177.45" r="1.3" transform="translate(2.11 357.71) rotate(-89.38)"/><rect class="cls-7" x="425.89" y="278.46" width="4.64" height="4.64"/><rect class="cls-7" x="275.53" y="224" width="4.64" height="4.64"/><rect class="cls-7" x="435.83" y="397.43" width="4.64" height="4.63"/><circle class="cls-7" cx="221.84" cy="371.26" r="2.32"/><circle class="cls-7" cx="221.84" cy="364.6" r="2.32"/><rect class="cls-7" x="219.52" y="355.33" width="4.64" height="4.63"/><rect class="cls-7" x="227.63" y="362.67" width="4.64" height="4.63"/><circle class="cls-7" cx="600.58" cy="264.85" r="2.32"/><circle class="cls-7" cx="600.58" cy="258.18" r="2.32"/><rect class="cls-7" x="598.26" y="248.91" width="4.64" height="4.64"/><rect class="cls-7" x="606.37" y="256.25" width="4.64" height="4.63"/><circle class="cls-7" cx="492.62" cy="157.27" r="2.32"/><rect class="cls-7" x="490.3" y="141.33" width="4.63" height="4.64"/><rect class="cls-7" x="354.62" y="301.06" width="3.77" height="22.02"/><rect class="cls-7" x="165.64" y="356.15" width="22.02" height="3.77"/><rect class="cls-7" x="198.76" y="267.45" width="15.06" height="2.03"/><circle class="cls-7" cx="723.13" cy="293.53" r="1.3"/><circle class="cls-7" cx="717.91" cy="293.53" r="1.3"/><circle class="cls-7" cx="712.7" cy="293.53" r="1.3"/><circle class="cls-7" cx="707.48" cy="293.53" r="1.3"/><rect class="cls-7" x="722.55" y="273.25" width="2.03" height="15.06"/><rect class="cls-7" x="468.52" y="239.21" width="9.56" height="2.03"/><circle class="cls-7" cx="508.89" cy="375.22" r="1.3"/><circle class="cls-7" cx="503.68" cy="375.22" r="1.3"/><circle class="cls-7" cx="498.46" cy="375.22" r="1.3"/><circle class="cls-7" cx="493.25" cy="375.22" r="1.3"/><rect class="cls-7" x="508.31" y="356.1" width="2.03" height="15.06"/><circle class="cls-7" cx="387.41" cy="356.63" r="2.32"/><circle class="cls-7" cx="394.07" cy="356.63" r="2.32"/><circle class="cls-7" cx="400.73" cy="356.63" r="2.32"/><circle class="cls-7" cx="411.69" cy="356.83" r="1.3"/><circle class="cls-7" cx="416.91" cy="356.83" r="1.3"/><circle class="cls-7" cx="422.12" cy="356.83" r="1.3"/><circle class="cls-7" cx="427.34" cy="356.83" r="1.3"/><rect class="cls-7" x="410.24" y="360.88" width="2.03" height="15.07"/><circle class="cls-7" cx="105.57" cy="198.31" r="2.32"/><circle class="cls-7" cx="105.57" cy="204.97" r="2.32"/><circle class="cls-7" cx="105.57" cy="211.64" r="2.32"/><circle class="cls-7" cx="105.38" cy="222.6" r="1.3"/><circle class="cls-7" cx="105.38" cy="227.81" r="1.3"/><circle class="cls-7" cx="105.38" cy="233.03" r="1.3"/><circle class="cls-7" cx="105.38" cy="238.24" r="1.3"/><rect class="cls-7" x="86.26" y="221.15" width="15.06" height="2.03"/><circle class="cls-7" cx="751.23" cy="360.45" r="2.32"/><circle class="cls-7" cx="751.23" cy="367.11" r="2.32"/><circle class="cls-7" cx="751.23" cy="373.77" r="2.32"/><circle class="cls-7" cx="751.03" cy="384.73" r="1.3"/><circle class="cls-7" cx="751.03" cy="389.95" r="1.3"/><circle class="cls-7" cx="751.03" cy="395.16" r="1.3"/><circle class="cls-7" cx="751.03" cy="400.38" r="1.3"/><rect class="cls-7" x="731.91" y="383.29" width="15.07" height="2.03"/><circle class="cls-7" cx="339.35" cy="163.34" r="2.32"/><circle class="cls-7" cx="332.69" cy="163.34" r="2.32"/><circle class="cls-7" cx="326.02" cy="163.34" r="2.32"/><circle class="cls-7" cx="355.33" cy="109.26" r="1.3"/><circle class="cls-7" cx="350.12" cy="109.26" r="1.3"/><circle class="cls-7" cx="342.58" cy="109.26" r="1.3"/><circle class="cls-7" cx="337.37" cy="109.26" r="1.3"/><circle class="cls-7" cx="315.06" cy="163.15" r="1.3"/><circle class="cls-7" cx="309.85" cy="163.15" r="1.3"/><circle class="cls-7" cx="304.63" cy="163.15" r="1.3"/><circle class="cls-7" cx="299.42" cy="163.15" r="1.3"/><rect class="cls-7" x="314.48" y="144.03" width="2.03" height="15.06"/><circle class="cls-7" cx="244.7" cy="294.03" r="1.3"/><circle class="cls-7" cx="244.7" cy="299.24" r="1.3"/><circle class="cls-7" cx="244.7" cy="304.46" r="1.3"/><circle class="cls-7" cx="244.7" cy="309.67" r="1.3"/><circle class="cls-7" cx="226.73" cy="294.03" r="1.3"/><circle class="cls-7" cx="226.73" cy="299.24" r="1.3"/><circle class="cls-7" cx="226.73" cy="304.46" r="1.3"/><circle class="cls-7" cx="226.73" cy="309.67" r="1.3"/></g></svg>